<svg xmlns="http://www.w3.org/2000/svg" viewBox="0 0 1400 700" role="img" aria-label="Ilustração premium de São Paulo com Ponte Estaiada"><defs><linearGradient id="g" x1="0" y1="0" x2="1" y2="1"><stop offset="0" stop-color="#070707"/><stop offset=".55" stop-color="#17100a"/><stop offset="1" stop-color="#050505"/></linearGradient><radialGradient id="r" cx="70%" cy="20%" r="60%"><stop offset="0" stop-color="#ffd43b" stop-opacity=".32"/><stop offset="1" stop-color="#000" stop-opacity="0"/></radialGradient></defs><rect width="1400" height="700" fill="url(#g)"/><rect width="1400" height="700" fill="url(#r)"/><g opacity=".28" stroke="#ffd43b" stroke-width="1"><path d="M0 110 H1400M0 180 H1400M0 250 H1400M0 320 H1400M0 390 H1400M0 460 H1400M0 530 H1400"/></g><g fill="#111"><rect x="40" y="410" width="80" height="210"/><rect x="140" y="360" width="120" height="260"/><rect x="285" y="430" width="70" height="190"/><rect x="380" y="330" width="105" height="290"/><rect x="505" y="385" width="90" height="235"/><rect x="1130" y="370" width="98" height="250"/><rect x="1255" y="315" width="110" height="305"/></g><g stroke="#f6d26a" stroke-width="5" fill="none" stroke-linecap="round" opacity=".95"><path d="M750 610 L910 120 L1068 610"/><path d="M910 120 L640 610M910 120 L670 610M910 120 L700 610M910 120 L730 610M910 120 L760 610M910 120 L790 610M910 120 L820 610M910 120 L850 610M910 120 L880 610M910 120 L940 610M910 120 L970 610M910 120 L1000 610M910 120 L1030 610M910 120 L1060 610M910 120 L1090 610M910 120 L1120 610"/><path d="M560 610 C700 520 870 495 1220 610" stroke-width="10" opacity=".8"/></g><g fill="#ffd43b" opacity=".95"><circle cx="910" cy="120" r="9"/><circle cx="1080" cy="190" r="4"/><circle cx="1170" cy="260" r="3"/></g><rect y="610" width="1400" height="90" fill="#050505" opacity=".9"/><text x="80" y="655" fill="#fff" font-family="Georgia,serif" font-size="48" font-weight="700">São Paulo • Instituto Lyouman</text></svg>
